<mxfile host="app.diagrams.net" modified="2020-12-13T17:20:50.785Z" agent="5.0 (Windows NT 10.0; Win64; x64) AppleWebKit/537.36 (KHTML, like Gecko) Chrome/86.0.4240.185 YaBrowser/20.11.2.78 Yowser/2.5 Safari/537.36" etag="YBdWOLihRZe_px13Wygr" version="14.0.1" type="github">
  <diagram name="Page-1" id="c7488fd3-1785-93aa-aadb-54a6760d102a">
    <mxGraphModel dx="1165" dy="678" grid="1" gridSize="10" guides="1" tooltips="1" connect="1" arrows="1" fold="1" page="1" pageScale="1" pageWidth="1100" pageHeight="850" background="#ffffff" math="0" shadow="0">
      <root>
        <mxCell id="0" />
        <mxCell id="1" parent="0" />
        <mxCell id="2b4e8129b02d487f-1" value="Оформление заявки" style="swimlane;html=1;childLayout=stackLayout;horizontal=1;startSize=20;horizontalStack=0;rounded=0;shadow=0;labelBackgroundColor=none;strokeWidth=1;fontFamily=Verdana;fontSize=8;align=center;" parent="1" vertex="1">
          <mxGeometry x="120" y="140" width="880" height="496.5" as="geometry">
            <mxRectangle x="120" y="140" width="130" height="20" as="alternateBounds" />
          </mxGeometry>
        </mxCell>
        <mxCell id="2b4e8129b02d487f-2" value="Клиент" style="swimlane;html=1;startSize=20;horizontal=0;" parent="2b4e8129b02d487f-1" vertex="1">
          <mxGeometry y="20" width="880" height="150" as="geometry" />
        </mxCell>
        <mxCell id="2b4e8129b02d487f-18" style="edgeStyle=orthogonalEdgeStyle;rounded=0;html=1;labelBackgroundColor=none;startArrow=none;startFill=0;startSize=5;endArrow=classicThin;endFill=1;endSize=5;jettySize=auto;orthogonalLoop=1;strokeWidth=1;fontFamily=Verdana;fontSize=8" parent="2b4e8129b02d487f-2" target="2b4e8129b02d487f-6" edge="1">
          <mxGeometry relative="1" as="geometry">
            <mxPoint x="90" y="75" as="sourcePoint" />
          </mxGeometry>
        </mxCell>
        <mxCell id="2b4e8129b02d487f-6" value="Пришел &lt;br&gt;на сайт" style="rounded=1;whiteSpace=wrap;html=1;shadow=0;labelBackgroundColor=none;strokeWidth=1;fontFamily=Verdana;fontSize=8;align=center;" parent="2b4e8129b02d487f-2" vertex="1">
          <mxGeometry x="120" y="56.49999999999997" width="70" height="37" as="geometry" />
        </mxCell>
        <mxCell id="lvzQ7dM_2jofMZctkc3j-2" value="Нажал в форме &quot;записаться&quot;" style="rounded=1;whiteSpace=wrap;html=1;shadow=0;labelBackgroundColor=none;strokeWidth=1;fontFamily=Verdana;fontSize=8;align=center;" vertex="1" parent="2b4e8129b02d487f-2">
          <mxGeometry x="290" y="56.49999999999997" width="70" height="37" as="geometry" />
        </mxCell>
        <mxCell id="uE7FoZv751cxw6Aowrw1-1" style="edgeStyle=orthogonalEdgeStyle;rounded=0;orthogonalLoop=1;jettySize=auto;html=1;entryX=0;entryY=0.5;entryDx=0;entryDy=0;" parent="2b4e8129b02d487f-2" source="2b4e8129b02d487f-6" target="lvzQ7dM_2jofMZctkc3j-3" edge="1">
          <mxGeometry relative="1" as="geometry" />
        </mxCell>
        <mxCell id="lvzQ7dM_2jofMZctkc3j-4" style="edgeStyle=orthogonalEdgeStyle;rounded=0;orthogonalLoop=1;jettySize=auto;html=1;entryX=0;entryY=0.5;entryDx=0;entryDy=0;" edge="1" parent="2b4e8129b02d487f-2" source="lvzQ7dM_2jofMZctkc3j-3" target="lvzQ7dM_2jofMZctkc3j-2">
          <mxGeometry relative="1" as="geometry" />
        </mxCell>
        <mxCell id="lvzQ7dM_2jofMZctkc3j-3" value="OR" style="rhombus;whiteSpace=wrap;html=1;" vertex="1" parent="2b4e8129b02d487f-2">
          <mxGeometry x="230" y="57" width="40" height="36" as="geometry" />
        </mxCell>
        <mxCell id="lvzQ7dM_2jofMZctkc3j-8" value="Письмо?&amp;nbsp;" style="rounded=1;whiteSpace=wrap;html=1;shadow=0;labelBackgroundColor=none;strokeWidth=1;fontFamily=Verdana;fontSize=8;align=center;" vertex="1" parent="2b4e8129b02d487f-2">
          <mxGeometry x="530" y="56" width="70" height="37" as="geometry" />
        </mxCell>
        <mxCell id="lvzQ7dM_2jofMZctkc3j-1" value="Клиент" style="shape=umlActor;verticalLabelPosition=bottom;verticalAlign=top;html=1;outlineConnect=0;" vertex="1" parent="2b4e8129b02d487f-2">
          <mxGeometry x="60" y="45" width="30" height="60" as="geometry" />
        </mxCell>
        <mxCell id="lvzQ7dM_2jofMZctkc3j-35" value="Письмо с договоренностями и по оплате" style="rounded=1;whiteSpace=wrap;html=1;shadow=0;labelBackgroundColor=none;strokeWidth=1;fontFamily=Verdana;fontSize=8;align=center;" vertex="1" parent="2b4e8129b02d487f-2">
          <mxGeometry x="710" y="56" width="70" height="37" as="geometry" />
        </mxCell>
        <mxCell id="2b4e8129b02d487f-3" value="Форма" style="swimlane;html=1;startSize=20;horizontal=0;" parent="2b4e8129b02d487f-1" vertex="1">
          <mxGeometry y="170" width="880" height="175.5" as="geometry">
            <mxRectangle y="170" width="880" height="20" as="alternateBounds" />
          </mxGeometry>
        </mxCell>
        <mxCell id="2b4e8129b02d487f-7" value="Заявка появилась в форме (gsheet) + telegram" style="rounded=1;whiteSpace=wrap;html=1;shadow=0;labelBackgroundColor=none;strokeWidth=1;fontFamily=Verdana;fontSize=8;align=center;" parent="2b4e8129b02d487f-3" vertex="1">
          <mxGeometry x="400" y="69.24999999999997" width="70" height="37" as="geometry" />
        </mxCell>
        <mxCell id="uE7FoZv751cxw6Aowrw1-2" style="edgeStyle=orthogonalEdgeStyle;rounded=0;orthogonalLoop=1;jettySize=auto;html=1;entryX=0;entryY=0.5;entryDx=0;entryDy=0;exitX=0.5;exitY=1;exitDx=0;exitDy=0;" parent="2b4e8129b02d487f-1" source="lvzQ7dM_2jofMZctkc3j-3" target="uE7FoZv751cxw6Aowrw1-3" edge="1">
          <mxGeometry relative="1" as="geometry">
            <mxPoint x="220" y="400" as="targetPoint" />
          </mxGeometry>
        </mxCell>
        <mxCell id="lvzQ7dM_2jofMZctkc3j-5" style="edgeStyle=orthogonalEdgeStyle;rounded=0;orthogonalLoop=1;jettySize=auto;html=1;entryX=0;entryY=0.5;entryDx=0;entryDy=0;" edge="1" parent="2b4e8129b02d487f-1" source="lvzQ7dM_2jofMZctkc3j-2" target="2b4e8129b02d487f-7">
          <mxGeometry relative="1" as="geometry">
            <mxPoint x="440" y="95" as="targetPoint" />
          </mxGeometry>
        </mxCell>
        <mxCell id="2b4e8129b02d487f-4" value="Сотрудник" style="swimlane;html=1;startSize=20;horizontal=0;" parent="2b4e8129b02d487f-1" vertex="1">
          <mxGeometry y="345.5" width="880" height="150" as="geometry">
            <mxRectangle y="345.5" width="880" height="20" as="alternateBounds" />
          </mxGeometry>
        </mxCell>
        <mxCell id="uE7FoZv751cxw6Aowrw1-3" value="входящий&amp;nbsp; вызов/письмо от клиента" style="rounded=1;whiteSpace=wrap;html=1;shadow=0;labelBackgroundColor=none;strokeWidth=1;fontFamily=Verdana;fontSize=8;align=center;" parent="2b4e8129b02d487f-4" vertex="1">
          <mxGeometry x="290" y="40.5" width="70" height="37" as="geometry" />
        </mxCell>
        <mxCell id="lvzQ7dM_2jofMZctkc3j-6" value="Под вопросом" style="shape=callout;whiteSpace=wrap;html=1;perimeter=calloutPerimeter;fillColor=#f8cecc;strokeColor=#b85450;" vertex="1" parent="2b4e8129b02d487f-4">
          <mxGeometry x="200" y="4.5" width="100" height="55.5" as="geometry" />
        </mxCell>
        <mxCell id="lvzQ7dM_2jofMZctkc3j-15" value="Падает уведомление сотруднику" style="rounded=1;whiteSpace=wrap;html=1;shadow=0;labelBackgroundColor=none;strokeWidth=1;fontFamily=Verdana;fontSize=8;align=center;" vertex="1" parent="2b4e8129b02d487f-4">
          <mxGeometry x="470" y="44.5" width="70" height="37" as="geometry" />
        </mxCell>
        <mxCell id="lvzQ7dM_2jofMZctkc3j-26" value="Подтверждает заявку, выбирает время&amp;nbsp;" style="rounded=1;whiteSpace=wrap;html=1;shadow=0;labelBackgroundColor=none;strokeWidth=1;fontFamily=Verdana;fontSize=8;align=center;" vertex="1" parent="2b4e8129b02d487f-4">
          <mxGeometry x="590" y="94.5" width="70" height="37" as="geometry" />
        </mxCell>
        <mxCell id="lvzQ7dM_2jofMZctkc3j-27" style="edgeStyle=orthogonalEdgeStyle;rounded=0;orthogonalLoop=1;jettySize=auto;html=1;entryX=0;entryY=0.5;entryDx=0;entryDy=0;fillColor=#f8cecc;strokeColor=#b85450;" edge="1" parent="2b4e8129b02d487f-4" source="uE7FoZv751cxw6Aowrw1-3" target="lvzQ7dM_2jofMZctkc3j-26">
          <mxGeometry relative="1" as="geometry">
            <Array as="points">
              <mxPoint x="410" y="59" />
              <mxPoint x="410" y="113" />
            </Array>
          </mxGeometry>
        </mxCell>
        <mxCell id="lvzQ7dM_2jofMZctkc3j-28" style="edgeStyle=orthogonalEdgeStyle;rounded=0;orthogonalLoop=1;jettySize=auto;html=1;entryX=0;entryY=0.25;entryDx=0;entryDy=0;fillColor=#f8cecc;strokeColor=#b85450;" edge="1" parent="2b4e8129b02d487f-4" source="lvzQ7dM_2jofMZctkc3j-15" target="lvzQ7dM_2jofMZctkc3j-26">
          <mxGeometry relative="1" as="geometry" />
        </mxCell>
        <mxCell id="lvzQ7dM_2jofMZctkc3j-10" style="edgeStyle=orthogonalEdgeStyle;rounded=0;orthogonalLoop=1;jettySize=auto;html=1;" edge="1" parent="2b4e8129b02d487f-1" source="2b4e8129b02d487f-7" target="lvzQ7dM_2jofMZctkc3j-8">
          <mxGeometry relative="1" as="geometry" />
        </mxCell>
        <mxCell id="lvzQ7dM_2jofMZctkc3j-11" value="Автоматом?" style="edgeLabel;html=1;align=center;verticalAlign=middle;resizable=0;points=[];" vertex="1" connectable="0" parent="lvzQ7dM_2jofMZctkc3j-10">
          <mxGeometry x="-0.446" y="-1" relative="1" as="geometry">
            <mxPoint as="offset" />
          </mxGeometry>
        </mxCell>
        <mxCell id="lvzQ7dM_2jofMZctkc3j-13" style="edgeStyle=orthogonalEdgeStyle;rounded=0;orthogonalLoop=1;jettySize=auto;html=1;" edge="1" parent="2b4e8129b02d487f-1" source="2b4e8129b02d487f-7" target="lvzQ7dM_2jofMZctkc3j-15">
          <mxGeometry relative="1" as="geometry">
            <mxPoint x="560" y="440" as="targetPoint" />
          </mxGeometry>
        </mxCell>
        <mxCell id="lvzQ7dM_2jofMZctkc3j-36" style="edgeStyle=orthogonalEdgeStyle;rounded=0;orthogonalLoop=1;jettySize=auto;html=1;fillColor=#f8cecc;strokeColor=#b85450;" edge="1" parent="2b4e8129b02d487f-1" source="lvzQ7dM_2jofMZctkc3j-26" target="lvzQ7dM_2jofMZctkc3j-35">
          <mxGeometry relative="1" as="geometry" />
        </mxCell>
        <mxCell id="lvzQ7dM_2jofMZctkc3j-22" value="Ресурс &quot;учителя&quot;" style="swimlane;html=1;startSize=20;horizontal=0;" vertex="1" parent="1">
          <mxGeometry x="120" y="636.5" width="880" height="150" as="geometry" />
        </mxCell>
        <mxCell id="lvzQ7dM_2jofMZctkc3j-16" value="проверяет свободных учителей" style="rounded=1;whiteSpace=wrap;html=1;shadow=0;labelBackgroundColor=none;strokeWidth=1;fontFamily=Verdana;fontSize=8;align=center;" vertex="1" parent="lvzQ7dM_2jofMZctkc3j-22">
          <mxGeometry x="590" y="56.5" width="70" height="37" as="geometry" />
        </mxCell>
        <mxCell id="lvzQ7dM_2jofMZctkc3j-29" style="edgeStyle=orthogonalEdgeStyle;rounded=0;orthogonalLoop=1;jettySize=auto;html=1;entryX=0.5;entryY=0;entryDx=0;entryDy=0;fillColor=#f8cecc;strokeColor=#b85450;" edge="1" parent="1" source="lvzQ7dM_2jofMZctkc3j-26" target="lvzQ7dM_2jofMZctkc3j-16">
          <mxGeometry relative="1" as="geometry" />
        </mxCell>
      </root>
    </mxGraphModel>
  </diagram>
</mxfile>
